<svg xmlns="http://www.w3.org/2000/svg" fill="none" viewBox="0 0 1604 808" xmlns:v="https://vecta.io/nano"><g fill="#bf9874" opacity=".3"><path d="M410.72 6.474c0 3.596-2.913 6.474-6.478 6.474s-6.477-2.911-6.477-6.474S400.678 0 404.242 0s6.478 2.911 6.478 6.474zm17.31 0c0 3.596-2.914 6.474-6.478 6.474s-6.477-2.911-6.477-6.474S417.988 0 421.552 0s6.478 2.911 6.478 6.474zm17.28 0a6.47 6.47 0 0 1-6.477 6.474c-3.565 0-6.478-2.911-6.478-6.474S435.268 0 438.833 0s6.477 2.911 6.477 6.474zm17.3 0c0 3.596-2.913 6.474-6.478 6.474s-6.477-2.911-6.477-6.474S452.568 0 456.132 0s6.478 2.911 6.478 6.474zm17.31 0c0 3.596-2.914 6.474-6.478 6.474s-6.477-2.911-6.477-6.474S469.878 0 473.442 0s6.478 2.911 6.478 6.474zm17.28 0a6.47 6.47 0 0 1-6.477 6.474c-3.565 0-6.478-2.911-6.478-6.474S487.158 0 490.723 0s6.477 2.911 6.477 6.474zm17.3 0c0 3.596-2.913 6.474-6.478 6.474s-6.477-2.911-6.477-6.474S504.458 0 508.022 0s6.478 2.911 6.478 6.474zm17.28 0a6.47 6.47 0 0 1-6.477 6.474c-3.565 0-6.478-2.911-6.478-6.474S521.738 0 525.303 0s6.477 2.911 6.477 6.474zm17.3 0a6.47 6.47 0 0 1-6.477 6.474c-3.565 0-6.478-2.911-6.478-6.474S539.038 0 542.603 0s6.477 2.911 6.477 6.474zm17.31 0c0 3.596-2.913 6.474-6.478 6.474s-6.477-2.911-6.477-6.474S556.348 0 559.912 0s6.478 2.911 6.478 6.474zm17.27 0a6.47 6.47 0 0 1-6.477 6.474c-3.565 0-6.478-2.911-6.478-6.474S573.618 0 577.183 0s6.477 2.911 6.477 6.474zm17.31 0c0 3.596-2.913 6.474-6.478 6.474s-6.477-2.911-6.477-6.474S590.928 0 594.492 0s6.478 2.911 6.478 6.474zm17.28 0c0 3.596-2.914 6.474-6.478 6.474s-6.478-2.911-6.478-6.474S608.208 0 611.772 0s6.478 2.911 6.478 6.474zm17.3 0a6.47 6.47 0 0 1-6.477 6.474c-3.565 0-6.478-2.911-6.478-6.474S625.508 0 629.073 0s6.477 2.911 6.477 6.474zm17.28 0c0 3.596-2.913 6.474-6.478 6.474s-6.477-2.911-6.477-6.474S642.788 0 646.352 0s6.478 2.911 6.478 6.474zm17.31 0a6.47 6.47 0 0 1-6.477 6.474c-3.564 0-6.478-2.911-6.478-6.474S660.099 0 663.663 0s6.477 2.911 6.477 6.474zm17.3 0a6.47 6.47 0 0 1-6.477 6.474c-3.565 0-6.478-2.911-6.478-6.474S677.398 0 680.963 0s6.477 2.911 6.477 6.474zm86.47 0a6.47 6.47 0 0 1-6.477 6.474c-3.564 0-6.478-2.911-6.478-6.474S763.869 0 767.433 0s6.477 2.911 6.477 6.474zm17.28 0c0 3.596-2.913 6.474-6.478 6.474s-6.477-2.911-6.477-6.474S781.148 0 784.712 0s6.478 2.911 6.478 6.474zm17.31 0c0 3.596-2.913 6.474-6.478 6.474s-6.477-2.911-6.477-6.474S798.458 0 802.022 0s6.478 2.911 6.478 6.474zm17.27 0a6.47 6.47 0 0 1-6.477 6.474c-3.565 0-6.478-2.911-6.478-6.474S815.728 0 819.293 0s6.477 2.911 6.477 6.474zm69.19 0c0 3.596-2.913 6.474-6.478 6.474s-6.477-2.911-6.477-6.474S884.918 0 888.482 0s6.478 2.911 6.478 6.474zm17.28 0a6.47 6.47 0 0 1-6.477 6.474c-3.565 0-6.478-2.911-6.478-6.474S902.198 0 905.763 0s6.477 2.911 6.477 6.474zm17.31 0c0 3.596-2.913 6.474-6.478 6.474s-6.477-2.911-6.477-6.474S919.508 0 923.072 0s6.478 2.911 6.478 6.474zm121.05 0c0 3.596-2.92 6.474-6.48 6.474a6.5 6.5 0 0 1-6.48-6.474A6.5 6.5 0 0 1 1044.12 0a6.5 6.5 0 0 1 6.48 6.474zm17.3 0c0 3.596-2.92 6.474-6.48 6.474-3.57 0-6.48-2.911-6.48-6.474S1057.85 0 1061.42 0a6.5 6.5 0 0 1 6.48 6.474z"/><use href="#B"/><use href="#C"/><use href="#D"/><use href="#B" x="51.89"/><use href="#D" x="34.58"/><use href="#E"/><use href="#C" x="86.47"/><use href="#D" x="86.46"/><use href="#E" x="51.89"/><use href="#C" x="190.22"/><use href="#D" x="190.24"/><use href="#C" x="224.8"/><use href="#C" x="242.1"/><use href="#D" x="242.13"/><use href="#C" x="276.68"/><use href="#D" x="276.71"/><use href="#F"/><use href="#C" x="328.57"/><use href="#D" x="328.57"/><use href="#D" x="466.93"/><use href="#D" x="484.24"/><use href="#D" x="622.59"/><use href="#C" x="657.15"/><use href="#G"/><use href="#H"/><use href="#G" x="34.6"/><use href="#I"/><use href="#J"/><use href="#J" x="86.4"/><use href="#K"/><use href="#D" x="-51.89" y="17.263"/><use href="#K" x="34.58"/><use href="#C" y="17.263"/><use href="#D" y="17.263"/><use href="#K" x="86.46"/><use href="#D" x="34.58" y="17.263"/><use href="#L"/><use href="#C" x="86.47" y="17.263"/><use href="#D" x="86.46" y="17.263"/><use href="#L" x="51.89"/><use href="#C" x="224.8" y="17.263"/><use href="#K" x="293.99"/><use href="#D" x="242.13" y="17.263"/><use href="#C" x="276.68" y="17.263"/><use href="#D" x="276.71" y="17.263"/><use href="#F" y="17.263"/><use href="#K" x="380.46"/><use href="#L" x="553.4"/><use href="#D" x="622.59" y="17.263"/><use href="#F" x="380.46" y="17.263"/><use href="#I" x="-86.5" y="17.263"/><use href="#J" x="-86.5" y="17.263"/><use href="#G" y="17.263"/><use href="#H" y="17.263"/><use href="#M"/><use href="#I" y="17.263"/><use href="#M" x="34.6"/><use href="#G" x="86.5" y="17.263"/><use href="#H" x="86.4" y="17.263"/><use href="#M" x="86.5"/><use href="#I" x="86.5" y="17.263"/><use href="#G" x="172.9" y="17.263"/><use href="#H" x="172.9" y="17.263"/><use href="#M" x="173"/><use href="#I" x="172.9" y="17.263"/><use href="#N"/><use href="#N" x="17.273"/><use href="#C" x="-190.25" y="34.56"/><use href="#D" x="-190.22" y="34.56"/><use href="#C" x="-155.67" y="34.56"/><use href="#D" x="-155.64" y="34.56"/><use href="#F" x="-432.35" y="34.56"/><use href="#C" x="-103.78" y="34.56"/><use href="#D" x="-103.75" y="34.56"/><use href="#B" x="-51.89" y="34.56"/><use href="#C" x="-51.89" y="34.56"/><use href="#D" x="-51.89" y="34.56"/><use href="#B" y="34.56"/><use href="#C" y="34.56"/><use href="#D" y="34.56"/><use href="#B" x="51.89" y="34.56"/><use href="#D" x="34.58" y="34.56"/><use href="#E" y="34.56"/><use href="#C" x="86.47" y="34.56"/><use href="#D" x="86.46" y="34.56"/><use href="#E" x="51.89" y="34.56"/><use href="#C" x="138.33" y="34.56"/><use href="#C" x="224.8" y="34.56"/><use href="#C" x="242.1" y="34.56"/><use href="#D" x="242.13" y="34.56"/><use href="#C" x="276.68" y="34.56"/><use href="#D" x="276.71" y="34.56"/><use href="#F" y="34.56"/><use href="#C" x="328.57" y="34.56"/><use href="#D" x="466.93" y="34.56"/><use href="#D" x="484.24" y="34.56"/><use href="#C" x="518.79" y="34.56"/><use href="#D" x="518.82" y="34.56"/><use href="#E" x="484.24" y="34.56"/><use href="#C" x="657.15" y="34.56"/><use href="#C" x="674.46" y="34.56"/><use href="#F" x="380.46" y="34.56"/><use href="#G" x="-51.9" y="34.56"/><use href="#I" x="-86.5" y="34.56"/><use href="#J" x="-86.5" y="34.56"/><use href="#G" y="34.56"/><use href="#H" y="34.56"/><use href="#G" x="34.6" y="34.56"/><use href="#I" y="34.56"/><use href="#J" y="34.56"/><use href="#G" x="86.5" y="34.56"/><use href="#H" x="86.4" y="34.56"/><use href="#G" x="121.1" y="34.56"/><use href="#I" x="86.5" y="34.56"/><use href="#J" x="86.4" y="34.56"/><use href="#G" x="172.9" y="34.56"/><use href="#H" x="172.9" y="34.56"/><use href="#J" x="138.3" y="34.56"/><use href="#I" x="172.9" y="34.56"/><use href="#J" x="172.9" y="34.56"/><use href="#G" x="259.4" y="34.56"/><use href="#H" x="259.4" y="34.56"/><use href="#J" x="224.8" y="34.56"/><use href="#I" x="259.4" y="34.56"/><use href="#H" x="311.3" y="34.56"/><use href="#G" x="345.9" y="34.56"/><use href="#H" x="345.9" y="34.56"/><use href="#J" x="311.3" y="34.56"/><use href="#K" x="-207.561" y="34.595"/><use href="#D" x="-259.416" y="51.857"/><path d="M75.674 82.102c3.577 0 6.478-2.898 6.478-6.474s-2.9-6.474-6.478-6.474-6.478 2.898-6.478 6.474 2.9 6.474 6.478 6.474z"/><use href="#N" x="17.273" y="17.297"/><use href="#C" x="-190.25" y="51.857"/><use href="#D" x="-190.22" y="51.857"/><use href="#C" x="-155.67" y="51.857"/><use href="#L" x="-207.53" y="34.595"/><use href="#F" x="-432.35" y="51.857"/><use href="#K" x="-51.89" y="34.595"/><use href="#D" x="-103.75" y="51.857"/><use href="#B" x="-51.89" y="51.857"/><use href="#K" y="34.595"/><use href="#D" x="-51.89" y="51.857"/><use href="#K" x="34.58" y="34.595"/><use href="#C" y="51.857"/><use href="#D" y="51.857"/><use href="#K" x="86.46" y="34.595"/><use href="#D" x="34.58" y="51.857"/><use href="#L" x="51.89" y="34.595"/><use href="#C" x="138.33" y="51.857"/><use href="#L" x="86.47" y="34.595"/><use href="#D" x="190.24" y="51.857"/><use href="#C" x="224.8" y="51.857"/><use href="#K" x="293.99" y="34.595"/><use href="#D" x="242.13" y="51.857"/><use href="#C" x="276.68" y="51.857"/><use href="#K" x="380.46" y="34.595"/><use href="#D" x="328.57" y="51.857"/><path d="M663.66 82.102c3.577 0 6.477-2.898 6.477-6.474s-2.9-6.474-6.477-6.474a6.48 6.48 0 0 0-6.478 6.474 6.48 6.48 0 0 0 6.478 6.474z"/><use href="#B" x="484.24" y="51.857"/><use href="#D" x="466.93" y="51.857"/><use href="#L" x="432.35" y="34.595"/><use href="#C" x="518.79" y="51.857"/><use href="#L" x="466.93" y="34.595"/><use href="#E" x="484.24" y="51.857"/><use href="#C" x="570.68" y="51.857"/><use href="#L" x="518.82" y="34.595"/><use href="#C" x="605.26" y="51.857"/><use href="#L" x="553.4" y="34.595"/><use href="#D" x="622.59" y="51.857"/><use href="#C" x="657.15" y="51.857"/><use href="#C" x="674.46" y="51.857"/><use href="#F" x="380.46" y="51.857"/><use href="#M" x="-86.5" y="34.595"/><use href="#I" x="-86.5" y="51.857"/><use href="#J" x="-86.5" y="51.857"/><use href="#G" y="51.857"/><use href="#H" y="51.857"/><use href="#M" y="34.595"/><use href="#I" y="51.857"/><use href="#M" x="34.6" y="34.595"/><use href="#G" x="86.5" y="51.857"/><use href="#H" x="86.4" y="51.857"/><use href="#M" x="86.5" y="34.595"/><use href="#I" x="86.5" y="51.857"/><use href="#M" x="121.1" y="34.595"/><use href="#G" x="172.9" y="51.857"/><use href="#H" x="172.9" y="51.857"/><use href="#M" x="173" y="34.595"/><use href="#I" x="172.9" y="51.857"/><use href="#M" x="207.5" y="34.595"/><use href="#G" x="259.4" y="51.857"/><use href="#H" x="259.4" y="51.857"/><use href="#M" x="259.4" y="34.595"/><use href="#I" x="259.4" y="51.857"/><use href="#M" x="294" y="34.595"/><use href="#G" x="345.9" y="51.857"/><use href="#H" x="345.9" y="51.857"/><use href="#M" x="345.9" y="34.595"/><use href="#G" x="397.8" y="51.857"/><use href="#M" x="380.5" y="34.595"/><path d="M12.955 92.891c0 3.596-2.913 6.474-6.478 6.474S0 96.453 0 92.891s2.913-6.474 6.478-6.474 6.478 2.911 6.478 6.474z"/><use href="#D" x="-293.997" y="69.12"/><path d="M47.571 92.891c0 3.596-2.913 6.474-6.477 6.474s-6.478-2.911-6.478-6.474 2.913-6.474 6.478-6.474 6.477 2.911 6.477 6.474z"/><use href="#D" x="-259.416" y="69.12"/><use href="#N" y="34.56"/><use href="#N" x="17.273" y="34.56"/><use href="#C" x="-190.25" y="69.12"/><use href="#D" x="-190.22" y="69.12"/><use href="#C" x="-155.67" y="69.12"/><use href="#D" x="-155.64" y="69.12"/><use href="#F" x="-432.35" y="69.12"/><use href="#C" x="-103.78" y="69.12"/><use href="#D" x="-103.75" y="69.12"/><use href="#B" x="-51.89" y="69.12"/><use href="#C" x="-51.89" y="69.12"/><use href="#D" x="-51.89" y="69.12"/><use href="#B" y="69.12"/><use href="#C" y="69.12"/><use href="#D" y="69.12"/><use href="#B" x="51.89" y="69.12"/><use href="#D" x="86.46" y="69.12"/><use href="#E" x="51.89" y="69.12"/><use href="#C" x="138.33" y="69.12"/><use href="#C" x="224.8" y="69.12"/><use href="#C" x="242.1" y="69.12"/><use href="#C" x="328.57" y="69.12"/><use href="#D" x="328.57" y="69.12"/><use href="#D" x="432.35" y="69.12"/><use href="#B" x="484.24" y="69.12"/><use href="#D" x="466.93" y="69.12"/><use href="#C" x="518.79" y="69.12"/><use href="#D" x="518.82" y="69.12"/><use href="#E" x="484.24" y="69.12"/><use href="#C" x="570.68" y="69.12"/><use href="#D" x="570.7" y="69.12"/><use href="#C" x="605.26" y="69.12"/><use href="#D" x="605.29" y="69.12"/><use href="#D" x="622.59" y="69.12"/><use href="#C" x="657.15" y="69.12"/><use href="#C" x="674.46" y="69.12"/><use href="#F" x="380.46" y="69.12"/><use href="#G" x="-51.9" y="69.12"/><use href="#I" x="-86.5" y="69.12"/><use href="#J" x="-86.5" y="69.12"/><use href="#G" y="69.12"/><use href="#H" y="69.12"/><use href="#G" x="34.6" y="69.12"/><use href="#I" y="69.12"/><use href="#J" y="69.12"/><use href="#G" x="86.5" y="69.12"/><use href="#H" x="86.4" y="69.12"/><use href="#G" x="121.1" y="69.12"/><use href="#I" x="86.5" y="69.12"/><use href="#J" x="86.4" y="69.12"/><use href="#G" x="172.9" y="69.12"/><use href="#H" x="172.9" y="69.12"/><use href="#J" x="138.3" y="69.12"/><use href="#I" x="172.9" y="69.12"/><use href="#J" x="172.9" y="69.12"/><use href="#G" x="259.4" y="69.12"/><use href="#H" x="259.4" y="69.12"/><use href="#J" x="224.8" y="69.12"/><use href="#I" x="259.4" y="69.12"/><use href="#H" x="311.3" y="69.12"/><use href="#G" x="345.9" y="69.12"/><use href="#H" x="345.9" y="69.12"/><use href="#J" x="311.3" y="69.12"/><use href="#G" x="397.8" y="69.12"/><path d="M6.478 116.66a6.48 6.48 0 0 0 6.478-6.474 6.48 6.48 0 0 0-6.478-6.474A6.48 6.48 0 0 0 0 110.186a6.48 6.48 0 0 0 6.478 6.474zm17.307 0a6.48 6.48 0 0 0 6.478-6.474 6.48 6.48 0 0 0-6.478-6.474c-3.577 0-6.477 2.899-6.477 6.474s2.9 6.474 6.477 6.474zm17.274 0a6.48 6.48 0 0 0 6.477-6.474 6.48 6.48 0 0 0-6.477-6.474 6.48 6.48 0 0 0-6.478 6.474 6.48 6.48 0 0 0 6.478 6.474z"/><use href="#O"/><path d="M75.674 116.66a6.48 6.48 0 0 0 6.478-6.474 6.48 6.48 0 0 0-6.478-6.474 6.48 6.48 0 0 0-6.478 6.474 6.48 6.48 0 0 0 6.478 6.474zm23.751-6.47c0 3.596-2.913 6.474-6.478 6.474s-6.478-2.912-6.478-6.474 2.913-6.474 6.478-6.474 6.478 2.912 6.478 6.474z"/><use href="#P"/><use href="#O" x="69.196"/><use href="#P" x="34.58"/><use href="#Q"/><use href="#R"/><use href="#S"/><use href="#O" x="155.666"/><use href="#T"/><use href="#S" x="51.89"/><use href="#O" x="207.526"/><use href="#S" x="86.47"/><use href="#P" x="190.25"/><use href="#P" x="276.72"/><use href="#O" x="345.876"/><use href="#Q" x="259.42"/><use href="#Q" x="587.99"/><use href="#T" x="536.13"/><use href="#O" x="726.346"/><use href="#P" x="709.04"/><use href="#Q" x="674.46"/><use href="#U"/><use href="#P" x="760.93"/><use href="#Q" x="726.35"/><use href="#P" x="795.51"/><use href="#Q" x="760.93"/><use href="#O" x="882.006"/><use href="#P" x="847.4"/><use href="#P" x="864.71"/><use href="#R" x="812.81"/><use href="#V"/><use href="#W"/><path d="m1050.6 110.19c0 3.596-2.92 6.474-6.48 6.474s-6.48-2.912-6.48-6.474 2.92-6.474 6.48-6.474 6.48 2.912 6.48 6.474z"/><use href="#X"/><use href="#Y"/><use href="#V" x="86.5"/><use href="#W" x="86.5"/><use href="#V" x="121.1"/><use href="#X" x="86.5"/><use href="#Y" x="86.4"/><use href="#V" x="173"/><use href="#W" x="173"/><use href="#V" x="207.6"/><use href="#X" x="172.9"/><use href="#Y" x="172.9"/><use href="#V" x="259.5"/><use href="#W" x="259.4"/><use href="#V" x="294"/><use href="#X" x="259.4"/><use href="#Y" x="259.4"/><use href="#V" x="345.9"/><use href="#W" x="345.9"/><use href="#X" x="345.9"/><use href="#Y" x="345.9"/><use href="#V" x="432.4"/><path d="M12.955 127.45c0 3.562-2.913 6.474-6.478 6.474S0 131.012 0 127.45s2.913-6.474 6.478-6.474 6.478 2.912 6.478 6.474z"/><use href="#Z"/><use href="#a"/><use href="#a" x="69.159"/><use href="#Z" x="103.777"/><use href="#a" x="103.739"/><use href="#Z" x="138.357"/><use href="#b"/><use href="#a" x="155.629"/><use href="#Z" x="190.247"/><use href="#c"/><use href="#a" x="207.519"/><use href="#Z" x="242.107"/><use href="#c" x="51.89"/><use href="#a" x="259.409"/><use href="#a" x="345.879"/><use href="#Z" x="380.457"/><use href="#d"/><use href="#a" x="397.739"/><use href="#a" x="639.869"/><use href="#Z" x="674.457"/><use href="#c" x="536.13"/><use href="#Z" x="760.927"/><use href="#a" x="778.199"/><use href="#Z" x="812.817"/><use href="#d" x="432.35"/><use href="#a" x="830.089"/><use href="#Z" x="864.697"/><use href="#a" x="864.669"/><use href="#Z" x="899.287"/><use href="#Z" x="916.587"/><use href="#a" x="916.559"/><use href="#a" x="933.869"/><use href="#b" x="812.81"/><use href="#e"/><use href="#f"/><use href="#g"/><use href="#e" x="51.9"/><use href="#h"/><use href="#e" x="86.5"/><use href="#f" x="86.5"/><use href="#g" x="86.5"/><use href="#e" x="138.4"/><use href="#h" x="86.4"/><use href="#e" x="173"/><use href="#f" x="173"/><use href="#g" x="172.9"/><use href="#e" x="224.8"/><use href="#h" x="172.9"/><use href="#g" x="224.8"/><use href="#f" x="259.4"/><use href="#g" x="259.4"/><use href="#e" x="311.3"/><use href="#e" x="397.8"/><use href="#h" x="345.9"/><use href="#i"/><use href="#j"/><use href="#i" x="34.58"/><use href="#k"/><use href="#l"/><use href="#m"/><use href="#j" x="86.47"/><use href="#n"/><use href="#m" x="51.89"/><use href="#j" x="138.33"/><use href="#m" x="86.47"/><use href="#i" x="190.25"/><use href="#j" x="190.22"/><use href="#m" x="138.35"/><use href="#j" x="224.8"/><use href="#k" x="207.53"/><use href="#i" x="276.72"/><use href="#j" x="276.68"/><use href="#k" x="259.42"/><use href="#i" x="328.58"/><use href="#k" x="294"/><use href="#o"/><use href="#i" x="570.71"/><use href="#j" x="570.68"/><use href="#k" x="587.99"/><use href="#n" x="536.13"/><use href="#j" x="657.15"/><use href="#k" x="639.88"/><use href="#i" x="709.04"/><use href="#k" x="674.46"/><use href="#p"/><use href="#i" x="760.93"/><use href="#k" x="726.35"/><use href="#i" x="795.51"/><use href="#k" x="760.93"/><use href="#j" x="812.81"/><use href="#i" x="847.4"/><use href="#i" x="864.71"/><use href="#l" x="812.81"/><use href="#q"/><use href="#r"/><use href="#s"/><use href="#t"/><use href="#u"/><use href="#q" x="86.5"/><use href="#r" x="86.5"/><use href="#q" x="121.1"/><use href="#t" x="86.5"/><use href="#u" x="86.4"/><use href="#q" x="173"/><use href="#r" x="173"/><use href="#q" x="207.6"/><use href="#t" x="172.9"/><use href="#u" x="172.9"/><use href="#q" x="259.5"/><use href="#r" x="259.4"/><use href="#q" x="294"/><use href="#t" x="259.4"/><use href="#u" x="259.4"/><use href="#q" x="345.9"/><use href="#u" x="345.9"/><use href="#q" x="432.4"/><use href="#i" y="17.29"/><use href="#j" y="17.29"/><use href="#i" x="34.58" y="17.29"/><use href="#j" x="34.58" y="17.29"/><use href="#l" y="17.29"/><use href="#i" x="86.47" y="17.29"/><use href="#j" x="86.47" y="17.29"/><use href="#n" y="17.29"/><use href="#i" x="138.36" y="17.29"/><use href="#j" x="138.33" y="17.29"/><use href="#n" x="51.89" y="17.29"/><use href="#i" x="190.25" y="17.29"/><use href="#j" x="190.22" y="17.29"/><use href="#n" x="103.78" y="17.29"/><use href="#j" x="224.8" y="17.29"/><use href="#p" x="-484.24" y="17.29"/><use href="#i" x="276.72" y="17.29"/><use href="#j" x="276.68" y="17.29"/><use href="#p" x="-432.35" y="17.29"/><use href="#i" x="328.58" y="17.29"/><use href="#j" x="328.57" y="17.29"/><use href="#n" x="432.36" y="17.29"/><use href="#j" x="570.68" y="17.29"/><use href="#n" x="484.24" y="17.29"/><use href="#j" x="605.26" y="17.29"/><use href="#j" x="622.57" y="17.29"/><use href="#n" x="536.13" y="17.29"/><use href="#j" x="657.15" y="17.29"/><use href="#j" x="674.46" y="17.29"/><use href="#i" x="709.04" y="17.29"/><use href="#j" x="709.04" y="17.29"/><use href="#p" y="17.29"/><use href="#i" x="760.93" y="17.29"/><use href="#j" x="760.92" y="17.29"/><use href="#i" x="795.51" y="17.29"/><use href="#j" x="795.51" y="17.29"/><use href="#j" x="812.81" y="17.29"/><use href="#i" x="847.4" y="17.29"/><use href="#i" x="864.71" y="17.29"/><use href="#l" x="812.81" y="17.29"/><use href="#t" x="-51.9" y="17.29"/><use href="#r" y="17.29"/><use href="#s" y="17.29"/><use href="#t" y="17.29"/><use href="#u" y="17.29"/><use href="#t" x="34.6" y="17.29"/><use href="#r" x="86.5" y="17.29"/><use href="#s" x="86.5" y="17.29"/><use href="#t" x="86.5" y="17.29"/><use href="#u" x="86.4" y="17.29"/><use href="#t" x="121.1" y="17.29"/><use href="#r" x="173" y="17.29"/><use href="#s" x="172.9" y="17.29"/><use href="#t" x="172.9" y="17.29"/><use href="#u" x="172.9" y="17.29"/><use href="#s" x="224.8" y="17.29"/><use href="#r" x="259.4" y="17.29"/><use href="#s" x="259.4" y="17.29"/><use href="#t" x="259.4" y="17.29"/><use href="#u" x="259.4" y="17.29"/><use href="#s" x="311.3" y="17.29"/><use href="#r" x="345.9" y="17.29"/><use href="#i" y="34.56"/><use href="#j" y="34.56"/><use href="#i" x="34.58" y="34.56"/><use href="#k" y="34.56"/><use href="#l" y="34.56"/><use href="#m" y="34.56"/><use href="#j" x="86.47" y="34.56"/><use href="#n" y="34.56"/><use href="#m" x="51.89" y="34.56"/><use href="#j" x="138.33" y="34.56"/><use href="#m" x="86.47" y="34.56"/><use href="#i" x="190.25" y="34.56"/><use href="#j" x="190.22" y="34.56"/><use href="#m" x="138.35" y="34.56"/><use href="#j" x="224.8" y="34.56"/><use href="#k" x="207.53" y="34.56"/><use href="#i" x="276.72" y="34.56"/><use href="#j" x="276.68" y="34.56"/><use href="#i" x="328.58" y="34.56"/><use href="#k" x="294" y="34.56"/><use href="#j" x="570.68" y="34.56"/><use href="#o" x="51.89" y="34.56"/><use href="#j" x="605.26" y="34.56"/><use href="#k" x="587.99" y="34.56"/><use href="#n" x="536.13" y="34.56"/><use href="#j" x="657.15" y="34.56"/><use href="#k" x="639.88" y="34.56"/><use href="#i" x="709.04" y="34.56"/><use href="#k" x="674.46" y="34.56"/><use href="#p" y="34.56"/><use href="#i" x="760.93" y="34.56"/><use href="#k" x="726.35" y="34.56"/><use href="#i" x="795.51" y="34.56"/><use href="#k" x="760.93" y="34.56"/><use href="#j" x="812.81" y="34.56"/><use href="#i" x="847.4" y="34.56"/><use href="#i" x="864.71" y="34.56"/><use href="#l" x="812.81" y="34.56"/><use href="#q" y="34.56"/><use href="#r" y="34.56"/><use href="#s" y="34.56"/><use href="#t" y="34.56"/><use href="#u" y="34.56"/><use href="#q" x="86.5" y="34.56"/><use href="#r" x="86.5" y="34.56"/><use href="#q" x="121.1" y="34.56"/><use href="#t" x="86.5" y="34.56"/><use href="#u" x="86.4" y="34.56"/><use href="#q" x="173" y="34.56"/><use href="#r" x="173" y="34.56"/><use href="#q" x="207.6" y="34.56"/><use href="#t" x="172.9" y="34.56"/><use href="#u" x="172.9" y="34.56"/><use href="#q" x="259.5" y="34.56"/><use href="#r" x="259.4" y="34.56"/><use href="#q" x="294" y="34.56"/><use href="#t" x="259.4" y="34.56"/><use href="#u" x="259.4" y="34.56"/><use href="#q" x="345.9" y="34.56"/><use href="#r" x="345.9" y="34.56"/><use href="#q" x="380.5" y="34.56"/><use href="#v"/><use href="#w"/><use href="#v" x="34.58"/><use href="#w" x="34.58"/><use href="#x"/><use href="#v" x="86.47"/><use href="#w" x="86.47"/><use href="#y"/><use href="#v" x="138.36"/><use href="#w" x="138.33"/><use href="#y" x="51.89"/><use href="#v" x="190.25"/><use href="#w" x="190.22"/><use href="#y" x="103.78"/><use href="#w" x="224.8"/><use href="#z"/><use href="#v" x="276.72"/><use href="#w" x="276.68"/><use href="#y" x="484.24"/><use href="#w" x="605.26"/><use href="#w" x="622.57"/><use href="#y" x="536.13"/><use href="#w" x="657.15"/><use href="#w" x="674.46"/><use href="#v" x="709.04"/><use href="#w" x="709.04"/><use href="#v" x="795.51"/><use href="#w" x="795.51"/><use href="#v" x="864.71"/><use href="#x" x="812.81"/><use href="#AA"/><use href="#AB"/><use href="#AC"/><use href="#AA" x="51.9"/><use href="#u" y="51.85"/><use href="#AA" x="86.5"/><use href="#AB" x="86.5"/><use href="#AC" x="86.5"/><use href="#AA" x="138.4"/><use href="#u" x="86.4" y="51.85"/><use href="#AA" x="173"/><use href="#AB" x="173"/><use href="#AC" x="172.9"/><use href="#AA" x="224.8"/><use href="#u" x="172.9" y="51.85"/><use href="#AC" x="224.8"/><use href="#AB" x="259.4"/><use href="#AC" x="259.4"/><use href="#AA" x="311.3"/><use href="#u" x="259.4" y="51.85"/><use href="#AC" x="311.3"/><use href="#u" x="311.3" y="51.85"/><use href="#AA" x="397.8"/><path d="M99.425 213.87c0 3.597-2.913 6.474-6.478 6.474s-6.478-2.912-6.478-6.474 2.913-6.473 6.478-6.473 6.478 2.911 6.478 6.473z"/><use href="#i" y="69.12"/><use href="#j" y="69.12"/><use href="#i" x="34.58" y="69.12"/><use href="#AD"/><use href="#l" y="69.12"/><use href="#AE"/><use href="#j" x="86.47" y="69.12"/><use href="#n" y="69.12"/><use href="#AE" x="51.89"/><use href="#j" x="138.33" y="69.12"/><use href="#AE" x="86.47"/><use href="#i" x="190.25" y="69.12"/><use href="#j" x="190.22" y="69.12"/><use href="#AE" x="138.35"/><use href="#j" x="224.8" y="69.12"/><use href="#AF"/><use href="#i" x="570.71" y="69.12"/><use href="#j" x="570.68" y="69.12"/><use href="#AF" x="51.89"/><use href="#j" x="657.15" y="69.12"/><use href="#AD" x="639.88"/><use href="#i" x="709.04" y="69.12"/><use href="#AD" x="674.46"/><use href="#AD" x="760.93"/><use href="#j" x="812.81" y="69.12"/><use href="#i" x="864.71" y="69.12"/><use href="#l" x="812.81" y="69.12"/><use href="#AG"/><use href="#r" y="69.12"/><use href="#s" y="69.12"/><use href="#t" y="69.12"/><use href="#u" y="69.12"/><use href="#AG" x="86.5"/><use href="#r" x="86.5" y="69.12"/><use href="#AG" x="121.1"/><use href="#t" x="86.5" y="69.12"/><use href="#u" x="86.4" y="69.12"/><use href="#AG" x="173"/><use href="#r" x="173" y="69.12"/><use href="#AG" x="207.6"/><use href="#t" x="172.9" y="69.12"/><use href="#u" x="172.9" y="69.12"/><use href="#AG" x="259.5"/><use href="#r" x="259.4" y="69.12"/><use href="#AG" x="294"/><use href="#t" x="259.4" y="69.12"/><use href="#u" x="259.4" y="69.12"/><use href="#t" x="345.9" y="69.12"/><path d="M99.425 231.16c0 3.597-2.913 6.474-6.478 6.474s-6.478-2.911-6.478-6.474 2.913-6.473 6.478-6.473 6.478 2.911 6.478 6.473z"/><use href="#v" y="34.56"/><use href="#w" y="34.56"/><use href="#v" x="34.58" y="34.56"/><use href="#w" x="34.58" y="34.56"/><use href="#x" y="34.56"/><use href="#v" x="86.47" y="34.56"/><use href="#w" x="86.47" y="34.56"/><use href="#y" y="34.56"/><use href="#v" x="138.36" y="34.56"/><use href="#w" x="138.33" y="34.56"/><use href="#y" x="51.89" y="34.56"/><use href="#v" x="190.25" y="34.56"/><use href="#w" x="190.22" y="34.56"/><use href="#y" x="103.78" y="34.56"/><use href="#y" x="432.36" y="34.56"/><use href="#v" x="570.71" y="34.56"/><use href="#w" x="570.68" y="34.56"/><use href="#v" x="709.04" y="34.56"/><use href="#z" x="484.24" y="34.56"/><use href="#v" x="760.93" y="34.56"/><use href="#w" x="760.92" y="34.56"/><use href="#v" x="795.51" y="34.56"/><use href="#w" x="795.51" y="34.56"/><use href="#w" x="812.81" y="34.56"/><use href="#x" x="812.81" y="34.56"/><use href="#AA" y="34.56"/><use href="#AB" y="34.56"/><use href="#AC" y="34.56"/><use href="#AA" x="51.9" y="34.56"/><use href="#u" y="86.41"/><use href="#AA" x="86.5" y="34.56"/><use href="#AB" x="86.5" y="34.56"/><use href="#AC" x="86.5" y="34.56"/><use href="#AA" x="138.4" y="34.56"/><use href="#u" x="86.4" y="86.41"/><use href="#AA" x="173" y="34.56"/><use href="#AB" x="173" y="34.56"/><use href="#AC" x="172.9" y="34.56"/><use href="#AA" x="224.8" y="34.56"/><use href="#u" x="172.9" y="86.41"/><use href="#AC" x="224.8" y="34.56"/><use href="#AB" x="259.4" y="34.56"/><use href="#AC" x="259.4" y="34.56"/><use href="#AA" x="311.3" y="34.56"/><use href="#u" x="259.4" y="86.41"/><use href="#AA" x="397.8" y="34.56"/><path d="M99.425 248.46a6.47 6.47 0 0 1-6.478 6.473c-3.564 0-6.478-2.911-6.478-6.473s2.913-6.474 6.478-6.474 6.478 2.911 6.478 6.474z"/><use href="#AH"/><use href="#AI"/><use href="#AH" x="34.58"/><use href="#AI" x="34.58"/><use href="#AJ"/><use href="#AH" x="86.47"/><use href="#AI" x="86.47"/><use href="#AK"/><use href="#AH" x="138.36"/><use href="#AI" x="138.33"/><use href="#AK" x="51.89"/><use href="#AH" x="190.25"/><use href="#AI" x="190.22"/><use href="#AH" x="570.71"/><use href="#AI" x="570.68"/><use href="#AK" x="484.24"/><use href="#AI" x="605.26"/><use href="#AI" x="622.57"/><use href="#AL"/><use href="#AH" x="760.93"/><use href="#AI" x="760.92"/><use href="#AH" x="795.51"/><use href="#AI" x="795.51"/><use href="#AI" x="812.81"/><use href="#AH" x="847.4"/><use href="#AH" x="864.71"/><use href="#AJ" x="812.81"/><use href="#AM"/><use href="#AN"/><use href="#AO"/><use href="#AM" x="51.9"/><use href="#AP"/><use href="#AM" x="86.5"/><use href="#AN" x="86.5"/><use href="#AO" x="86.5"/><use href="#AM" x="138.4"/><use href="#AP" x="86.4"/><use href="#AM" x="173"/><use href="#AN" x="173"/><use href="#AO" x="172.9"/><use href="#AM" x="224.8"/><use href="#AP" x="172.9"/><use href="#AO" x="224.8"/><use href="#AN" x="259.4"/><use href="#AO" x="259.4"/><use href="#AM" x="311.3"/><use href="#AO" x="311.3"/><use href="#AM" x="397.8"/><use href="#v" y="69.12"/><use href="#w" y="69.12"/><use href="#v" x="34.58" y="69.12"/><use href="#w" x="34.58" y="69.12"/><use href="#x" y="69.12"/><use href="#v" x="86.47" y="69.12"/><use href="#w" x="86.47" y="69.12"/><use href="#y" y="69.12"/><use href="#v" x="138.36" y="69.12"/><use href="#w" x="138.33" y="69.12"/><use href="#y" x="51.89" y="69.12"/><use href="#v" x="190.25" y="69.12"/><use href="#v" x="570.71" y="69.12"/><use href="#w" x="570.68" y="69.12"/><use href="#y" x="484.24" y="69.12"/><use href="#w" x="605.26" y="69.12"/><use href="#w" x="622.57" y="69.12"/><use href="#y" x="536.13" y="69.12"/><use href="#w" x="760.92" y="69.12"/><use href="#v" x="795.51" y="69.12"/><use href="#w" x="795.51" y="69.12"/><use href="#w" x="812.81" y="69.12"/><use href="#v" x="847.4" y="69.12"/><use href="#v" x="864.71" y="69.12"/><use href="#x" x="812.81" y="69.12"/><use href="#AA" y="69.12"/><use href="#AB" y="69.12"/><use href="#AC" y="69.12"/><use href="#AA" x="51.9" y="69.12"/><use href="#u" y="120.97"/><use href="#AA" x="86.5" y="69.12"/><use href="#AB" x="86.5" y="69.12"/><use href="#AC" x="86.5" y="69.12"/><use href="#AA" x="138.4" y="69.12"/><use href="#u" x="86.4" y="120.97"/><use href="#AA" x="173" y="69.12"/><use href="#AB" x="173" y="69.12"/><use href="#AC" x="172.9" y="69.12"/><use href="#AA" x="224.8" y="69.12"/><use href="#u" x="172.9" y="120.97"/><use href="#AC" x="224.8" y="69.12"/><use href="#AB" x="259.4" y="69.12"/><use href="#AC" x="259.4" y="69.12"/><use href="#AA" x="311.3" y="69.12"/><use href="#AB" x="345.9" y="69.12"/><use href="#u" x="311.3" y="120.97"/><use href="#AH" y="34.56"/><use href="#AI" y="34.56"/><use href="#AH" x="34.58" y="34.56"/><use href="#AI" x="34.58" y="34.56"/><use href="#AJ" y="34.56"/><use href="#AH" x="86.47" y="34.56"/><use href="#AI" x="86.47" y="34.56"/><use href="#AK" y="34.56"/><use href="#AH" x="138.36" y="34.56"/><use href="#AI" x="138.33" y="34.56"/><use href="#AK" x="51.89" y="34.56"/><use href="#AK" x="432.36" y="34.56"/><use href="#AH" x="570.71" y="34.56"/><use href="#AI" x="570.68" y="34.56"/><use href="#AK" x="484.24" y="34.56"/><use href="#AI" x="605.26" y="34.56"/><use href="#AI" x="622.57" y="34.56"/><use href="#AK" x="536.13" y="34.56"/><use href="#AI" x="657.15" y="34.56"/><use href="#AI" x="674.46" y="34.56"/><use href="#AH" x="709.04" y="34.56"/><use href="#AI" x="709.04" y="34.56"/><use href="#AL" y="34.56"/><use href="#AH" x="760.93" y="34.56"/><use href="#AI" x="760.92" y="34.56"/><use href="#AH" x="795.51" y="34.56"/><use href="#AI" x="795.51" y="34.56"/><use href="#AI" x="812.81" y="34.56"/><use href="#AH" x="847.4" y="34.56"/><use href="#AH" x="864.71" y="34.56"/><use href="#AJ" x="812.81" y="34.56"/><use href="#AM" y="34.56"/><use href="#AN" y="34.56"/><use href="#AO" y="34.56"/><use href="#AM" x="51.9" y="34.56"/><use href="#AP" y="34.56"/><use href="#AM" x="86.5" y="34.56"/><use href="#AN" x="86.5" y="34.56"/><use href="#AO" x="86.5" y="34.56"/><use href="#AM" x="138.4" y="34.56"/><use href="#AP" x="86.4" y="34.56"/><use href="#AM" x="173" y="34.56"/><use href="#AN" x="173" y="34.56"/><use href="#AO" x="172.9" y="34.56"/><use href="#AM" x="224.8" y="34.56"/><use href="#AP" x="172.9" y="34.56"/><use href="#AO" x="224.8" y="34.56"/><use href="#AN" x="259.4" y="34.56"/><use href="#AO" x="259.4" y="34.56"/><use href="#AM" x="311.3" y="34.56"/><use href="#AP" x="259.4" y="34.56"/><use href="#AH" y="51.83"/><use href="#AI" y="51.83"/><use href="#AH" x="34.58" y="51.83"/><use href="#AI" x="34.58" y="51.83"/><use href="#AJ" y="51.83"/><use href="#AH" x="86.47" y="51.83"/><use href="#AK" x="51.89" y="51.83"/><use href="#AI" x="518.79" y="51.83"/><use href="#AK" x="432.36" y="51.83"/><use href="#AH" x="570.71" y="51.83"/><use href="#AI" x="570.68" y="51.83"/><use href="#AK" x="484.24" y="51.83"/><use href="#AI" x="605.26" y="51.83"/><use href="#AI" x="622.57" y="51.83"/><use href="#AK" x="536.13" y="51.83"/><use href="#AI" x="657.15" y="51.83"/><use href="#AI" x="674.46" y="51.83"/><use href="#AH" x="709.04" y="51.83"/><use href="#AI" x="709.04" y="51.83"/><use href="#AL" y="51.83"/><use href="#AH" x="760.93" y="51.83"/><use href="#AH" x="795.51" y="51.83"/><use href="#AI" x="795.51" y="51.83"/><use href="#AI" x="812.81" y="51.83"/><use href="#AH" x="847.4" y="51.83"/><use href="#AM" y="51.83"/><use href="#AN" y="51.83"/><use href="#AO" y="51.83"/><use href="#AM" x="51.9" y="51.83"/><use href="#AP" y="51.83"/><use href="#AM" x="86.5" y="51.83"/><use href="#AN" x="86.5" y="51.83"/><use href="#AO" x="86.5" y="51.83"/><use href="#AM" x="138.4" y="51.83"/><use href="#AP" x="86.4" y="51.83"/><use href="#AM" x="173" y="51.83"/><use href="#AN" x="173" y="51.83"/><use href="#AO" x="172.9" y="51.83"/><use href="#AM" x="224.8" y="51.83"/><use href="#AP" x="172.9" y="51.83"/><use href="#AO" x="224.8" y="51.83"/><use href="#AN" x="259.4" y="51.83"/><use href="#AO" x="259.4" y="51.83"/><use href="#AM" x="311.3" y="51.83"/><use href="#AP" x="259.4" y="51.83"/><use href="#AQ"/><use href="#AR"/><use href="#AQ" x="34.58"/><use href="#AS"/><use href="#AR" x="51.89"/><use href="#AT"/><use href="#AR" x="484.24"/><use href="#AQ" x="518.79"/><use href="#AT" x="380.47"/><use href="#AR" x="536.13"/><use href="#AQ" x="570.68"/><use href="#AT" x="432.35"/><use href="#AQ" x="605.26"/><use href="#AQ" x="622.57"/><use href="#AT" x="484.24"/><use href="#AQ" x="657.15"/><use href="#AQ" x="674.46"/><use href="#AR" x="674.46"/><use href="#AQ" x="709.04"/><use href="#AU"/><use href="#AR" x="726.35"/><use href="#AR" x="760.93"/><use href="#AQ" x="795.51"/><use href="#AQ" x="812.81"/><use href="#AR" x="812.82"/><use href="#AM" x="51.9" y="69.12"/><use href="#AV"/><use href="#AM" x="86.5" y="69.12"/><use href="#AW"/><use href="#AX"/><use href="#AM" x="138.4" y="69.12"/><use href="#AV" x="86.4"/><use href="#AM" x="173" y="69.12"/><use href="#AW" x="86.5"/><use href="#AX" x="86.4"/><use href="#AM" x="224.8" y="69.12"/><use href="#AV" x="172.9"/><use href="#AX" x="138.3"/><use href="#AW" x="172.9"/><use href="#AX" x="172.9"/><use href="#AM" x="311.3" y="69.12"/><use href="#AQ" y="17.3"/><use href="#AR" y="17.3"/><use href="#AY"/><use href="#AS" y="17.3"/><use href="#AQ" x="138.33" y="17.3"/><use href="#AZ"/><use href="#AZ" x="345.88"/><use href="#AQ" x="518.79" y="17.3"/><use href="#Aa"/><use href="#AR" x="536.13" y="17.3"/><use href="#AQ" x="570.68" y="17.3"/><use href="#Aa" x="51.89"/><use href="#AQ" x="605.26" y="17.3"/><use href="#AY" x="587.99"/><use href="#AT" x="484.24" y="17.3"/><use href="#AQ" x="657.15" y="17.3"/><use href="#AY" x="639.88"/><use href="#AR" x="674.46" y="17.3"/><use href="#AY" x="674.46"/><use href="#AU" y="17.3"/><use href="#AR" x="726.35" y="17.3"/><use href="#AY" x="726.35"/><use href="#AY" x="760.93"/><use href="#AQ" x="812.81" y="17.3"/><use href="#AR" x="812.82" y="17.3"/><use href="#AR" x="830.13" y="17.3"/><use href="#AS" x="812.81" y="17.3"/><use href="#Ab"/><use href="#AV" y="17.3"/><use href="#Ab" x="86.5"/><use href="#AW" y="17.3"/><use href="#Ab" x="121.1"/><use href="#AM" x="138.4" y="86.42"/><use href="#AV" x="86.4" y="17.3"/><use href="#Ab" x="173"/><use href="#AW" x="86.5" y="17.3"/><use href="#Ab" x="207.6"/><use href="#AM" x="224.8" y="86.42"/><use href="#AV" x="172.9" y="17.3"/><use href="#Ab" x="259.5"/><use href="#AW" x="172.9" y="17.3"/><use href="#Ab" x="294"/><use href="#AR" y="34.56"/><use href="#AQ" x="34.58" y="34.56"/><use href="#AS" y="34.56"/><use href="#AR" x="51.89" y="34.56"/><use href="#AT" x="-51.89" y="34.56"/><use href="#AR" x="155.67" y="34.56"/><use href="#AQ" x="190.22" y="34.56"/><use href="#AT" x="51.89" y="34.56"/><use href="#AR" x="484.24" y="34.56"/><use href="#AQ" x="518.79" y="34.56"/><use href="#AT" x="380.47" y="34.56"/><use href="#AR" x="536.13" y="34.56"/><use href="#AQ" x="570.68" y="34.56"/><use href="#AT" x="432.35" y="34.56"/><use href="#AQ" x="605.26" y="34.56"/><use href="#AQ" x="622.57" y="34.56"/><use href="#AT" x="484.24" y="34.56"/><use href="#AQ" x="657.15" y="34.56"/><use href="#AQ" x="674.46" y="34.56"/><use href="#AR" x="674.46" y="34.56"/><use href="#AQ" x="709.04" y="34.56"/><use href="#AU" y="34.56"/><use href="#AR" x="726.35" y="34.56"/><use href="#AQ" x="760.92" y="34.56"/><use href="#AQ" x="795.51" y="34.56"/><use href="#AQ" x="812.81" y="34.56"/><use href="#AR" x="812.82" y="34.56"/><use href="#AR" x="830.13" y="34.56"/><use href="#AS" x="812.81" y="34.56"/><use href="#AM" y="103.68"/><use href="#AM" x="86.5" y="103.68"/><use href="#AW" y="34.56"/><use href="#AX" y="34.56"/><use href="#AM" x="138.4" y="103.68"/><use href="#AW" x="86.5" y="34.56"/><use href="#AX" x="86.4" y="34.56"/><use href="#AM" x="224.8" y="103.68"/><use href="#AV" x="172.9" y="34.56"/><use href="#AX" x="138.3" y="34.56"/><use href="#AW" x="172.9" y="34.56"/><use href="#Q" y="259.25"/><use href="#R" y="259.25"/><use href="#S" y="259.25"/><use href="#O" x="155.666" y="259.25"/><use href="#T" y="259.25"/><use href="#S" x="432.35" y="259.25"/><use href="#O" x="587.986" y="259.25"/><use href="#Ac"/><use href="#P" x="570.71" y="259.25"/><use href="#O" x="639.876" y="259.25"/><use href="#Ac" x="51.89"/><use href="#O" x="674.456" y="259.25"/><use href="#Q" x="587.99" y="259.25"/><use href="#T" x="536.13" y="259.25"/><use href="#O" x="726.346" y="259.25"/><use href="#Q" x="639.88" y="259.25"/><use href="#P" x="709.04" y="259.25"/><use href="#Q" x="674.46" y="259.25"/><use href="#U" y="259.25"/><use href="#P" x="760.93" y="259.25"/><use href="#Q" x="726.35" y="259.25"/><use href="#P" x="795.51" y="259.25"/><use href="#O" x="882.006" y="259.25"/><use href="#P" x="847.4" y="259.25"/><use href="#P" x="864.71" y="259.25"/><use href="#R" x="812.81" y="259.25"/><use href="#V" x="86.5" y="259.25"/><use href="#W" x="86.5" y="259.25"/><use href="#V" x="121.1" y="259.25"/><use href="#V" x="207.6" y="259.25"/><use href="#X" x="172.9" y="259.25"/><use href="#Y" x="172.9" y="259.25"/><use href="#V" x="259.5" y="259.25"/><use href="#V" x="345.9" y="259.25"/><use href="#AQ" x="86.47" y="69.12"/><use href="#AT" x="-51.89" y="69.12"/><use href="#AR" x="103.78" y="69.12"/><use href="#AR" x="484.24" y="69.12"/><use href="#AQ" x="518.79" y="69.12"/><use href="#AT" x="380.47" y="69.12"/><use href="#AR" x="536.13" y="69.12"/><use href="#AQ" x="570.68" y="69.12"/><use href="#AT" x="432.35" y="69.12"/><use href="#AQ" x="605.26" y="69.12"/><use href="#AQ" x="622.57" y="69.12"/><use href="#AT" x="484.24" y="69.12"/><use href="#AQ" x="657.15" y="69.12"/><use href="#AQ" x="674.46" y="69.12"/><use href="#AR" x="674.46" y="69.12"/><use href="#AQ" x="709.04" y="69.12"/><use href="#AU" y="69.12"/><use href="#AR" x="726.35" y="69.12"/><use href="#AQ" x="760.92" y="69.12"/><use href="#AR" x="760.93" y="69.12"/><use href="#AQ" x="795.51" y="69.12"/><use href="#AQ" x="812.81" y="69.12"/><use href="#AR" x="812.82" y="69.12"/><use href="#AW" y="69.12"/><use href="#AX" y="69.12"/><use href="#AM" x="224.8" y="138.24"/><use href="#AV" x="172.9" y="69.12"/><use href="#AX" x="138.3" y="69.12"/><use href="#AW" x="172.9" y="69.12"/><use href="#AX" x="224.8" y="69.12"/><use href="#S" x="51.89" y="293.81"/><use href="#O" x="259.416" y="293.81"/><use href="#S" x="432.35" y="293.81"/><use href="#O" x="587.986" y="293.81"/><use href="#Ac" y="34.56"/><use href="#P" x="570.71" y="293.81"/><use href="#O" x="639.876" y="293.81"/><use href="#Ac" x="51.89" y="34.56"/><use href="#O" x="674.456" y="293.81"/><use href="#Q" x="587.99" y="293.81"/><use href="#T" x="536.13" y="293.81"/><use href="#O" x="726.346" y="293.81"/><use href="#Q" x="639.88" y="293.81"/><use href="#P" x="709.04" y="293.81"/><use href="#Q" x="674.46" y="293.81"/><use href="#U" y="293.81"/><use href="#P" x="760.93" y="293.81"/><use href="#Q" x="726.35" y="293.81"/><use href="#P" x="795.51" y="293.81"/><use href="#Q" x="760.93" y="293.81"/><use href="#O" x="882.006" y="293.81"/><use href="#P" x="847.4" y="293.81"/><use href="#P" x="864.71" y="293.81"/><use href="#W" x="86.5" y="293.81"/><use href="#V" x="121.1" y="293.81"/><use href="#X" x="172.9" y="293.81"/><use href="#V" x="259.5" y="293.81"/><use href="#W" x="259.4" y="293.81"/><use href="#V" x="345.9" y="293.81"/><use href="#W" x="345.9" y="293.81"/><use href="#j" x="138.33" y="276.55"/><use href="#n" x="51.89" y="276.55"/><use href="#i" x="190.25" y="276.55"/><use href="#j" x="190.22" y="276.55"/><use href="#n" x="103.78" y="276.55"/><use href="#j" x="224.8" y="276.55"/><use href="#p" x="-484.24" y="276.55"/><use href="#j" x="518.79" y="276.55"/><use href="#n" x="432.36" y="276.55"/><use href="#i" x="570.71" y="276.55"/><use href="#j" x="570.68" y="276.55"/><use href="#n" x="484.24" y="276.55"/><use href="#j" x="605.26" y="276.55"/><use href="#j" x="622.57" y="276.55"/><use href="#n" x="536.13" y="276.55"/><use href="#j" x="657.15" y="276.55"/><use href="#j" x="674.46" y="276.55"/><use href="#i" x="709.04" y="276.55"/><use href="#j" x="709.04" y="276.55"/><use href="#p" y="276.55"/><use href="#i" x="760.93" y="276.55"/><use href="#j" x="760.92" y="276.55"/><use href="#i" x="795.51" y="276.55"/><use href="#j" x="795.51" y="276.55"/><use href="#j" x="812.81" y="276.55"/><use href="#i" x="847.4" y="276.55"/><use href="#i" x="864.71" y="276.55"/><use href="#r" x="86.5" y="276.55"/><use href="#s" x="86.5" y="276.55"/><use href="#t" x="172.9" y="276.55"/><use href="#u" x="259.4" y="276.55"/><use href="#r" x="345.9" y="276.55"/><use href="#P" x="190.25" y="328.37"/><use href="#O" x="259.416" y="328.37"/><use href="#S" x="138.35" y="328.37"/><use href="#O" x="293.996" y="328.37"/><use href="#Q" x="207.53" y="328.37"/><use href="#P" x="276.72" y="328.37"/><use href="#O" x="345.876" y="328.37"/><use href="#O" x="587.986" y="328.37"/><use href="#Ac" y="69.12"/><use href="#P" x="570.71" y="328.37"/><use href="#O" x="674.456" y="328.37"/><use href="#Q" x="587.99" y="328.37"/><use href="#T" x="536.13" y="328.37"/><use href="#O" x="726.346" y="328.37"/><use href="#Q" x="639.88" y="328.37"/><use href="#P" x="709.04" y="328.37"/><use href="#Q" x="674.46" y="328.37"/><use href="#U" y="328.37"/><use href="#P" x="760.93" y="328.37"/><use href="#Q" x="726.35" y="328.37"/><use href="#P" x="795.51" y="328.37"/><use href="#Q" x="760.93" y="328.37"/><use href="#O" x="882.006" y="328.37"/><use href="#P" x="847.4" y="328.37"/><use href="#X" x="172.9" y="328.37"/><use href="#Y" x="172.9" y="328.37"/><use href="#Y" x="259.4" y="328.37"/><use href="#n" x="51.89" y="311.11"/><use href="#i" x="190.25" y="311.11"/><use href="#j" x="190.22" y="311.11"/><use href="#n" x="103.78" y="311.11"/><use href="#j" x="224.8" y="311.11"/><use href="#p" x="-484.24" y="311.11"/><use href="#i" x="276.72" y="311.11"/><use href="#j" x="276.68" y="311.11"/><use href="#p" x="-432.35" y="311.11"/><use href="#j" x="622.57" y="311.11"/><use href="#n" x="536.13" y="311.11"/><use href="#j" x="657.15" y="311.11"/><use href="#j" x="674.46" y="311.11"/><use href="#i" x="709.04" y="311.11"/><use href="#j" x="709.04" y="311.11"/><use href="#p" y="311.11"/><use href="#i" x="760.93" y="311.11"/><use href="#j" x="760.92" y="311.11"/><use href="#i" x="795.51" y="311.11"/><use href="#j" x="795.51" y="311.11"/><use href="#j" x="812.81" y="311.11"/><use href="#t" x="172.9" y="311.11"/><use href="#u" x="172.9" y="311.11"/><use href="#s" x="259.4" y="311.11"/><use href="#t" x="259.4" y="311.11"/><use href="#u" x="259.4" y="311.11"/><use href="#m" x="86.47" y="328.37"/><use href="#i" x="190.25" y="328.37"/><use href="#j" x="190.22" y="328.37"/><use href="#m" x="138.35" y="328.37"/><use href="#j" x="224.8" y="328.37"/><use href="#k" x="207.53" y="328.37"/><use href="#i" x="276.72" y="328.37"/><use href="#j" x="276.68" y="328.37"/><use href="#k" x="259.42" y="328.37"/><use href="#i" x="328.58" y="328.37"/><use href="#n" x="536.13" y="328.37"/><use href="#j" x="657.15" y="328.37"/><use href="#k" x="639.88" y="328.37"/><use href="#i" x="709.04" y="328.37"/><use href="#k" x="674.46" y="328.37"/><use href="#p" y="328.37"/><use href="#i" x="760.93" y="328.37"/><use href="#k" x="726.35" y="328.37"/><use href="#i" x="795.51" y="328.37"/><use href="#k" x="760.93" y="328.37"/><use href="#j" x="812.81" y="328.37"/><use href="#u" x="172.9" y="328.37"/><use href="#q" x="259.5" y="328.37"/><use href="#q" x="294" y="328.37"/><use href="#t" x="259.4" y="328.37"/><use href="#u" x="259.4" y="328.37"/><use href="#q" x="345.9" y="328.37"/><use href="#r" x="345.9" y="328.37"/><use href="#q" x="380.5" y="328.37"/><use href="#t" x="345.9" y="328.37"/><use href="#n" x="51.89" y="345.67"/><use href="#i" x="190.25" y="345.67"/><use href="#j" x="190.22" y="345.67"/><use href="#n" x="103.78" y="345.67"/><use href="#j" x="224.8" y="345.67"/><use href="#p" x="-484.24" y="345.67"/><use href="#i" x="276.72" y="345.67"/><use href="#j" x="276.68" y="345.67"/><use href="#p" x="-432.35" y="345.67"/><use href="#i" x="328.58" y="345.67"/><use href="#j" x="328.57" y="345.67"/><use href="#p" x="-380.46" y="345.67"/><use href="#i" x="380.47" y="345.67"/><use href="#n" x="536.13" y="345.67"/><use href="#j" x="657.15" y="345.67"/><use href="#j" x="674.46" y="345.67"/><use href="#i" x="709.04" y="345.67"/><use href="#j" x="709.04" y="345.67"/><use href="#p" y="345.67"/><use href="#i" x="760.93" y="345.67"/><use href="#j" x="760.92" y="345.67"/><use href="#i" x="795.51" y="345.67"/><use href="#j" x="795.51" y="345.67"/><use href="#u" x="172.9" y="345.67"/><use href="#s" x="224.8" y="345.67"/><use href="#r" x="259.4" y="345.67"/><use href="#s" x="259.4" y="345.67"/><use href="#t" x="259.4" y="345.67"/><use href="#s" x="311.3" y="345.67"/><use href="#u" x="311.3" y="345.67"/><use href="#t" x="345.9" y="345.67"/><use href="#u" x="345.9" y="345.67"/><use href="#s" x="397.8" y="345.67"/><use href="#t" x="397.8" y="345.67"/><use href="#u" x="397.8" y="345.67"/><use href="#s" x="484.2" y="345.67"/><use href="#m" x="86.47" y="362.93"/><use href="#i" x="190.25" y="362.93"/><use href="#j" x="190.22" y="362.93"/><use href="#m" x="138.35" y="362.93"/><use href="#j" x="224.8" y="362.93"/><use href="#k" x="207.53" y="362.93"/><use href="#i" x="276.72" y="362.93"/><use href="#j" x="276.68" y="362.93"/><use href="#k" x="259.42" y="362.93"/><use href="#i" x="328.58" y="362.93"/><use href="#k" x="294" y="362.93"/><use href="#p" x="-380.46" y="362.93"/><use href="#i" x="380.47" y="362.93"/><use href="#j" x="380.46" y="362.93"/><use href="#n" x="536.13" y="362.93"/><use href="#j" x="657.15" y="362.93"/><use href="#k" x="639.88" y="362.93"/><use href="#i" x="709.04" y="362.93"/><use href="#k" x="674.46" y="362.93"/><use href="#p" y="362.93"/><use href="#i" x="760.93" y="362.93"/><use href="#k" x="726.35" y="362.93"/><use href="#i" x="795.51" y="362.93"/><use href="#q" x="259.5" y="362.93"/><use href="#r" x="259.4" y="362.93"/><use href="#q" x="294" y="362.93"/><use href="#u" x="345.9" y="362.93"/><use href="#t" x="397.8" y="362.93"/><use href="#q" x="467" y="362.93"/><use href="#t" x="432.4" y="362.93"/><use href="#u" x="432.3" y="362.93"/><path d="m1552.1 507.68c0 3.597-2.91 6.474-6.48 6.474-3.56 0-6.47-2.912-6.47-6.474s2.91-6.473 6.47-6.473c3.57 0 6.48 2.911 6.48 6.473z"/><use href="#y" x="51.89" y="328.38"/><use href="#v" x="190.25" y="328.38"/><use href="#w" x="190.22" y="328.38"/><use href="#y" x="103.78" y="328.38"/><use href="#w" x="224.8" y="328.38"/><use href="#z" y="328.38"/><use href="#v" x="276.72" y="328.38"/><use href="#w" x="276.68" y="328.38"/><use href="#z" x="51.89" y="328.38"/><use href="#v" x="328.58" y="328.38"/><use href="#w" x="328.57" y="328.38"/><use href="#z" x="103.78" y="328.38"/><use href="#v" x="380.47" y="328.38"/><use href="#w" x="380.46" y="328.38"/><use href="#y" x="536.13" y="328.38"/><use href="#w" x="657.15" y="328.38"/><use href="#w" x="674.46" y="328.38"/><use href="#v" x="709.04" y="328.38"/><use href="#w" x="709.04" y="328.38"/><use href="#z" x="484.24" y="328.38"/><use href="#v" x="760.93" y="328.38"/><use href="#w" x="760.92" y="328.38"/><use href="#v" x="795.51" y="328.38"/><use href="#AA" x="311.3" y="328.38"/><use href="#u" x="259.4" y="380.23"/><use href="#AC" x="311.3" y="328.38"/><use href="#AB" x="345.9" y="328.38"/><use href="#u" x="311.3" y="380.23"/><use href="#AA" x="449.7" y="328.38"/><use href="#AA" x="484.3" y="328.38"/><use href="#u" x="432.3" y="380.23"/><use href="#AH" x="190.25" y="293.82"/><use href="#AI" x="190.22" y="293.82"/><path d="M335.08 548.75c3.577 0 6.477-2.898 6.477-6.473s-2.9-6.474-6.477-6.474-6.478 2.898-6.478 6.474 2.9 6.473 6.478 6.473z"/><use href="#AI" x="224.8" y="293.82"/><use href="#Ad"/><use href="#AH" x="276.72" y="293.82"/><use href="#AI" x="276.68" y="293.82"/><use href="#Ad" x="51.89"/><use href="#AH" x="328.58" y="293.82"/><use href="#Ad" x="86.47"/><use href="#AL" x="-380.46" y="293.82"/><use href="#AH" x="380.47" y="293.82"/><use href="#AI" x="380.46" y="293.82"/><use href="#AK" x="536.13" y="293.82"/><use href="#AI" x="657.15" y="293.82"/><use href="#Ad" x="432.35"/><use href="#AH" x="709.04" y="293.82"/><use href="#Ad" x="466.93"/><use href="#AL" y="293.82"/><use href="#AH" x="760.93" y="293.82"/><use href="#Ad" x="518.82"/><use href="#AH" x="795.51" y="293.82"/><use href="#v" x="190.25" y="362.94"/><use href="#w" x="190.22" y="362.94"/><use href="#y" x="103.78" y="362.94"/><use href="#w" x="224.8" y="362.94"/><use href="#z" y="362.94"/><use href="#v" x="276.72" y="362.94"/><use href="#w" x="276.68" y="362.94"/><use href="#z" x="51.89" y="362.94"/><use href="#v" x="328.58" y="362.94"/><use href="#w" x="328.57" y="362.94"/><use href="#z" x="103.78" y="362.94"/><use href="#v" x="380.47" y="362.94"/><use href="#y" x="536.13" y="362.94"/><use href="#w" x="657.15" y="362.94"/><use href="#w" x="674.46" y="362.94"/><use href="#v" x="709.04" y="362.94"/><use href="#w" x="709.04" y="362.94"/><use href="#z" x="484.24" y="362.94"/><use href="#v" x="760.93" y="362.94"/><use href="#w" x="760.92" y="362.94"/><use href="#v" x="795.51" y="362.94"/><use href="#v" x="847.4" y="362.94"/><use href="#AB" x="345.9" y="362.94"/><use href="#u" x="311.3" y="414.79"/><use href="#AA" x="397.8" y="362.94"/><use href="#u" x="345.9" y="414.79"/><use href="#u" x="397.8" y="414.79"/><use href="#AK" x="103.78" y="328.38"/><use href="#AI" x="224.8" y="328.38"/><use href="#AL" x="-484.24" y="328.38"/><use href="#AH" x="276.72" y="328.38"/><use href="#AI" x="276.68" y="328.38"/><use href="#AL" x="-432.35" y="328.38"/><use href="#AH" x="328.58" y="328.38"/><use href="#AI" x="328.57" y="328.38"/><use href="#AL" x="-380.46" y="328.38"/><use href="#AH" x="380.47" y="328.38"/><use href="#AK" x="536.13" y="328.38"/><use href="#AI" x="657.15" y="328.38"/><use href="#AI" x="674.46" y="328.38"/><use href="#AH" x="709.04" y="328.38"/><use href="#AI" x="709.04" y="328.38"/><use href="#AL" y="328.38"/><use href="#AH" x="760.93" y="328.38"/><use href="#AI" x="760.92" y="328.38"/><use href="#AH" x="795.51" y="328.38"/><use href="#AI" x="812.81" y="328.38"/><use href="#AH" x="847.4" y="328.38"/><use href="#AO" x="311.3" y="328.38"/><use href="#AN" x="345.9" y="328.38"/><use href="#AP" x="311.3" y="328.38"/><use href="#AM" x="397.8" y="328.38"/><use href="#AP" x="345.9" y="328.38"/><use href="#AO" x="397.8" y="328.38"/><use href="#AM" x="449.7" y="328.38"/><use href="#AP" x="397.8" y="328.38"/><use href="#y" x="103.78" y="397.5"/><use href="#w" x="224.8" y="397.5"/><use href="#z" y="397.5"/><use href="#v" x="276.72" y="397.5"/><use href="#w" x="276.68" y="397.5"/><use href="#z" x="51.89" y="397.5"/><use href="#v" x="328.58" y="397.5"/><use href="#w" x="328.57" y="397.5"/><use href="#z" x="103.78" y="397.5"/><use href="#v" x="380.47" y="397.5"/><use href="#w" x="657.15" y="397.5"/><use href="#w" x="674.46" y="397.5"/><use href="#v" x="709.04" y="397.5"/><use href="#w" x="709.04" y="397.5"/><use href="#z" x="484.24" y="397.5"/><use href="#v" x="760.93" y="397.5"/><use href="#w" x="760.92" y="397.5"/><use href="#w" x="812.81" y="397.5"/><use href="#v" x="847.4" y="397.5"/><use href="#u" x="259.4" y="449.35"/><use href="#AC" x="311.3" y="397.5"/><use href="#AB" x="345.9" y="397.5"/><use href="#u" x="311.3" y="449.35"/><use href="#AA" x="397.8" y="397.5"/><use href="#u" x="345.9" y="449.35"/><use href="#AC" x="397.8" y="397.5"/><use href="#AA" x="449.7" y="397.5"/><use href="#u" x="397.8" y="449.35"/><use href="#AA" x="484.3" y="397.5"/><use href="#AK" x="103.78" y="362.94"/><use href="#AI" x="224.8" y="362.94"/><use href="#AL" x="-484.24" y="362.94"/><use href="#AH" x="276.72" y="362.94"/><use href="#AI" x="276.68" y="362.94"/><use href="#AL" x="-432.35" y="362.94"/><use href="#AH" x="328.58" y="362.94"/><use href="#AI" x="328.57" y="362.94"/><use href="#AL" x="-380.46" y="362.94"/><use href="#AI" x="657.15" y="362.94"/><use href="#AI" x="674.46" y="362.94"/><use href="#AH" x="709.04" y="362.94"/><use href="#AI" x="709.04" y="362.94"/><use href="#AL" y="362.94"/><use href="#AH" x="760.93" y="362.94"/><use href="#AI" x="760.92" y="362.94"/><use href="#AI" x="812.81" y="362.94"/><use href="#AH" x="847.4" y="362.94"/><use href="#AO" x="259.4" y="362.94"/><use href="#AM" x="311.3" y="362.94"/><use href="#AP" x="259.4" y="362.94"/><use href="#AO" x="311.3" y="362.94"/><use href="#AN" x="345.9" y="362.94"/><use href="#AP" x="311.3" y="362.94"/><use href="#AM" x="397.8" y="362.94"/><use href="#AP" x="345.9" y="362.94"/><use href="#AO" x="397.8" y="362.94"/><use href="#AM" x="449.7" y="362.94"/><use href="#AP" x="397.8" y="362.94"/><use href="#AM" x="484.3" y="362.94"/><use href="#AT" x="51.89" y="311.11"/><use href="#AQ" x="224.8" y="311.11"/><use href="#AU" x="-484.24" y="311.11"/><use href="#AR" x="242.14" y="311.11"/><use href="#AQ" x="276.68" y="311.11"/><use href="#AU" x="-432.35" y="311.11"/><use href="#AR" x="294" y="311.11"/><use href="#AQ" x="328.57" y="311.11"/><use href="#AQ" x="657.15" y="311.11"/><use href="#AQ" x="674.46" y="311.11"/><use href="#AR" x="674.46" y="311.11"/><use href="#AQ" x="709.04" y="311.11"/><use href="#AU" y="311.11"/><use href="#AR" x="726.35" y="311.11"/><use href="#AQ" x="812.81" y="311.11"/><use href="#AX" x="172.9" y="311.11"/><use href="#AM" x="311.3" y="380.23"/><use href="#AV" x="259.4" y="311.11"/><use href="#AX" x="224.8" y="311.11"/><use href="#AW" x="259.4" y="311.11"/><use href="#AV" x="311.3" y="311.11"/><use href="#AM" x="397.8" y="380.23"/><use href="#AV" x="345.9" y="311.11"/><use href="#AX" x="311.3" y="311.11"/><use href="#AM" x="449.7" y="380.23"/><use href="#AV" x="397.8" y="311.11"/><use href="#AM" x="484.3" y="380.23"/><use href="#AT" x="51.89" y="328.38"/><use href="#AQ" x="224.8" y="328.38"/><use href="#AU" x="-484.24" y="328.38"/><use href="#AR" x="242.14" y="328.38"/><use href="#AQ" x="276.68" y="328.38"/><use href="#AU" x="-432.35" y="328.38"/><use href="#AR" x="294" y="328.38"/><use href="#AQ" x="328.57" y="328.38"/><use href="#AQ" x="674.46" y="328.38"/><use href="#AR" x="674.46" y="328.38"/><use href="#AQ" x="709.04" y="328.38"/><use href="#AU" y="328.38"/><use href="#AR" x="726.35" y="328.38"/><use href="#AX" x="172.9" y="328.38"/><use href="#AM" x="311.3" y="397.5"/><use href="#AV" x="259.4" y="328.38"/><use href="#AX" x="224.8" y="328.38"/><use href="#AW" x="259.4" y="328.38"/><use href="#AV" x="311.3" y="328.38"/><use href="#AM" x="397.8" y="397.5"/><use href="#AV" x="345.9" y="328.38"/><use href="#AX" x="311.3" y="328.38"/><use href="#AM" x="449.7" y="397.5"/><use href="#AV" x="397.8" y="328.38"/><use href="#AM" x="484.3" y="397.5"/><use href="#AZ" x="51.88" y="328.37"/><use href="#Ae"/><use href="#AY" x="207.53" y="328.37"/><use href="#Af"/><use href="#Ae" x="51.88"/><use href="#AY" x="259.42" y="328.37"/><use href="#Af" x="51.86"/><use href="#AY" x="639.88" y="328.37"/><use href="#Af" x="432.32"/><use href="#AY" x="674.46" y="328.37"/><path d="m860.38 663.25c0 3.562-2.914 6.473-6.478 6.473s-6.477-2.911-6.477-6.473 2.913-6.474 6.477-6.474 6.478 2.912 6.478 6.474z"/><use href="#Ab" x="294" y="328.37"/><use href="#Ag"/><use href="#Ah"/><use href="#Ab" x="345.9" y="328.37"/><path d="M1379.2 663.25a6.49 6.49 0 0 1-6.47 6.473c-3.57 0-6.48-2.911-6.48-6.473s2.91-6.474 6.48-6.474c3.56 0 6.47 2.912 6.47 6.474z"/><use href="#Ab" x="380.5" y="328.37"/><use href="#Ag" x="86.5"/><use href="#Ah" x="86.5"/><use href="#Ab" x="432.4" y="328.37"/><use href="#Ag" x="138.4"/><use href="#Ab" x="467" y="328.37"/><use href="#AT" x="51.89" y="362.94"/><use href="#AQ" x="224.8" y="362.94"/><use href="#AU" x="-484.24" y="362.94"/><use href="#AR" x="242.14" y="362.94"/><use href="#AQ" x="276.68" y="362.94"/><use href="#AU" x="-432.35" y="362.94"/><use href="#AQ" x="674.46" y="362.94"/><use href="#AR" x="674.46" y="362.94"/><use href="#AQ" x="709.04" y="362.94"/><use href="#AX" x="172.9" y="362.94"/><use href="#AM" x="311.3" y="432.06"/><use href="#AM" x="397.8" y="432.06"/><use href="#AV" x="345.9" y="362.94"/><use href="#AX" x="311.3" y="362.94"/><use href="#AM" x="449.7" y="432.06"/><use href="#AV" x="397.8" y="362.94"/><use href="#S" x="138.35" y="587.63"/><use href="#Z" x="328.577" y="570.36"/><use href="#Q" x="207.53" y="587.63"/><use href="#a" x="345.879" y="570.36"/><use href="#Z" x="380.457" y="570.36"/><use href="#Q" x="259.42" y="587.63"/><use href="#h" x="345.9" y="570.36"/><use href="#V" x="432.4" y="587.63"/><use href="#V" x="588" y="587.63"/><path d="M358.84 715.11a6.47 6.47 0 0 1-6.478 6.474c-3.564 0-6.477-2.912-6.477-6.474s2.913-6.474 6.477-6.474 6.478 2.912 6.478 6.474zm17.3 0c0 3.597-2.914 6.474-6.478 6.474s-6.477-2.912-6.477-6.474 2.913-6.474 6.477-6.474 6.478 2.912 6.478 6.474zm17.31 0a6.47 6.47 0 0 1-6.477 6.474c-3.565 0-6.478-2.912-6.478-6.474s2.913-6.474 6.478-6.474 6.477 2.912 6.477 6.474z"/><use href="#Y" x="345.9" y="604.92"/><use href="#Y" x="484.2" y="604.92"/><path d="M1586.7 715.11c0 3.597-2.92 6.474-6.48 6.474-3.57 0-6.48-2.912-6.48-6.474s2.91-6.474 6.48-6.474a6.5 6.5 0 0 1 6.48 6.474z"/><use href="#Z" x="328.577" y="604.92"/><use href="#Q" x="207.53" y="622.19"/><use href="#a" x="345.879" y="604.92"/><use href="#h" x="345.9" y="604.92"/><path d="m1552.1 732.37c0 3.562-2.91 6.474-6.48 6.474-3.56 0-6.47-2.912-6.47-6.474s2.91-6.474 6.47-6.474c3.57 0 6.48 2.912 6.48 6.474z"/><use href="#j" x="224.8" y="604.92"/><use href="#p" x="-484.24" y="604.92"/><use href="#i" x="276.72" y="604.92"/><use href="#u" x="432.3" y="604.92"/><use href="#s" x="484.2" y="604.92"/><use href="#j" x="224.8" y="622.18"/><use href="#k" x="207.53" y="622.19"/><use href="#i" x="276.72" y="622.18"/><path d="M376.14 784.23c0 3.563-2.914 6.474-6.478 6.474s-6.477-2.911-6.477-6.474 2.913-6.473 6.477-6.473 6.478 2.911 6.478 6.473zm17.31 0c0 3.563-2.913 6.474-6.477 6.474s-6.478-2.911-6.478-6.474 2.913-6.473 6.478-6.473 6.477 2.911 6.477 6.473z"/><use href="#v" x="276.72" y="604.93"/><use href="#w" x="276.68" y="604.93"/><use href="#AD" x="259.42" y="587.66"/></g><defs ><path id="B" d="M289.67 23.771a6.47 6.47 0 0 1-6.477 6.474c-3.564 0-6.478-2.911-6.478-6.474s2.914-6.474 6.478-6.474 6.477 2.911 6.477 6.474z"/><path id="C" d="M306.98 23.771a6.47 6.47 0 0 1-6.477 6.474c-3.565 0-6.478-2.911-6.478-6.474s2.913-6.474 6.478-6.474 6.477 2.911 6.477 6.474z"/><path id="D" d="M324.26 23.771c0 3.596-2.913 6.474-6.478 6.474s-6.477-2.911-6.477-6.474 2.913-6.474 6.477-6.474 6.478 2.911 6.478 6.474z"/><path id="E" d="M376.14 23.771c0 3.596-2.914 6.474-6.478 6.474s-6.477-2.911-6.477-6.474 2.913-6.474 6.477-6.474 6.478 2.911 6.478 6.474z"/><path id="F" d="M618.25 23.771c0 3.596-2.914 6.474-6.478 6.474s-6.478-2.911-6.478-6.474 2.914-6.474 6.478-6.474 6.478 2.911 6.478 6.474z"/><path id="G" d="M1067.9 23.771c0 3.596-2.92 6.474-6.48 6.474-3.57 0-6.48-2.911-6.48-6.474s2.91-6.474 6.48-6.474a6.5 6.5 0 0 1 6.48 6.474z"/><path id="H" d="M1085.2 23.771a6.47 6.47 0 0 1-6.48 6.474 6.5 6.5 0 0 1-6.48-6.474 6.5 6.5 0 0 1 6.48-6.474c3.57 0 6.48 2.911 6.48 6.474z"/><path id="I" d="M1119.8 23.771a6.47 6.47 0 0 1-6.47 6.474c-3.57 0-6.48-2.911-6.48-6.474s2.91-6.474 6.48-6.474a6.49 6.49 0 0 1 6.47 6.474z"/><path id="J" d="M1137.1 23.771c0 3.596-2.92 6.474-6.48 6.474a6.5 6.5 0 0 1-6.48-6.474 6.5 6.5 0 0 1 6.48-6.474 6.5 6.5 0 0 1 6.48 6.474z"/><path id="K" d="M248.62 47.507c3.577 0 6.477-2.898 6.477-6.474s-2.9-6.474-6.477-6.474-6.478 2.898-6.478 6.474 2.9 6.474 6.478 6.474z"/><path id="L" d="M369.67 47.507c3.578 0 6.478-2.898 6.478-6.474s-2.9-6.474-6.478-6.474-6.477 2.898-6.477 6.474 2.9 6.474 6.477 6.474z"/><path id="M" d="M1096 47.507c3.58 0 6.48-2.898 6.48-6.474s-2.9-6.474-6.48-6.474-6.48 2.898-6.48 6.474 2.9 6.474 6.48 6.474z"/><path id="N" d="M82.152 58.331c0 3.596-2.913 6.474-6.478 6.474s-6.478-2.911-6.478-6.474 2.913-6.474 6.478-6.474 6.478 2.911 6.478 6.474z"/><path id="O" d="M64.844 110.19c0 3.596-2.913 6.474-6.478 6.474s-6.477-2.912-6.477-6.474 2.913-6.474 6.477-6.474 6.478 2.912 6.478 6.474z"/><path id="P" d="M116.73 110.19c0 3.596-2.913 6.474-6.477 6.474s-6.478-2.912-6.478-6.474 2.913-6.474 6.478-6.474 6.477 2.912 6.477 6.474z"/><path id="Q" d="M162.14 116.66c3.578 0 6.478-2.899 6.478-6.474s-2.9-6.474-6.478-6.474-6.477 2.899-6.477 6.474 2.9 6.474 6.477 6.474z"/><path id="R" d="m185.9 110.19c0 3.596-2.914 6.474-6.478 6.474s-6.478-2.912-6.478-6.474 2.914-6.474 6.478-6.474 6.478 2.912 6.478 6.474z"/><path id="S" d="M196.73 116.66c3.577 0 6.477-2.899 6.477-6.474s-2.9-6.474-6.477-6.474-6.478 2.899-6.478 6.474 2.9 6.474 6.478 6.474z"/><path id="T" d="m237.78 110.19c0 3.596-2.913 6.474-6.477 6.474s-6.478-2.912-6.478-6.474 2.914-6.474 6.478-6.474 6.477 2.912 6.477 6.474z"/><path id="U" d="m860.38 110.19c0 3.596-2.914 6.474-6.478 6.474s-6.477-2.912-6.477-6.474 2.913-6.474 6.477-6.474 6.478 2.912 6.478 6.474z"/><path id="V" d="M1009.5 116.66a6.48 6.48 0 0 0 6.48-6.474 6.48 6.48 0 0 0-12.96 0 6.48 6.48 0 0 0 6.48 6.474z"/><path id="W" d="M1033.3 110.19a6.47 6.47 0 0 1-6.47 6.474c-3.57 0-6.48-2.912-6.48-6.474s2.91-6.474 6.48-6.474c3.56 0 6.47 2.912 6.47 6.474z"/><path id="X" d="M1067.9 110.19c0 3.596-2.92 6.474-6.48 6.474-3.57 0-6.48-2.912-6.48-6.474s2.91-6.474 6.48-6.474a6.5 6.5 0 0 1 6.48 6.474z"/><path id="Y" d="M1085.2 110.19a6.47 6.47 0 0 1-6.48 6.474 6.5 6.5 0 0 1-6.48-6.474 6.5 6.5 0 0 1 6.48-6.474c3.57 0 6.48 2.912 6.48 6.474z"/><path id="Z" d="M30.263 127.45c0 3.562-2.913 6.474-6.478 6.474s-6.477-2.912-6.477-6.474 2.913-6.474 6.477-6.474 6.478 2.912 6.478 6.474z"/><path id="a" d="M47.571 127.45c0 3.562-2.913 6.474-6.477 6.474s-6.478-2.912-6.478-6.474 2.913-6.474 6.478-6.474 6.477 2.912 6.477 6.474z"/><path id="b" d="m185.9 127.45c0 3.562-2.914 6.474-6.478 6.474s-6.478-2.912-6.478-6.474 2.914-6.474 6.478-6.474 6.478 2.912 6.478 6.474z"/><path id="c" d="m237.78 127.45c0 3.562-2.913 6.474-6.477 6.474s-6.478-2.912-6.478-6.474 2.914-6.474 6.478-6.474 6.477 2.912 6.477 6.474z"/><path id="d" d="m428.03 127.45c0 3.562-2.914 6.474-6.478 6.474s-6.477-2.912-6.477-6.474 2.913-6.474 6.477-6.474 6.478 2.912 6.478 6.474z"/><path id="e" d="M1016 127.45a6.5 6.5 0 0 1-6.48 6.474c-3.57 0-6.48-2.912-6.48-6.474s2.91-6.474 6.48-6.474a6.5 6.5 0 0 1 6.48 6.474z"/><path id="f" d="m1033.3 127.45c0 3.562-2.91 6.474-6.47 6.474-3.57 0-6.48-2.912-6.48-6.474s2.91-6.474 6.48-6.474c3.56 0 6.47 2.912 6.47 6.474z"/><path id="g" d="m1050.6 127.45c0 3.562-2.92 6.474-6.48 6.474s-6.48-2.912-6.48-6.474 2.92-6.474 6.48-6.474 6.48 2.912 6.48 6.474z"/><path id="h" d="M1085.2 127.45c0 3.562-2.91 6.474-6.48 6.474a6.5 6.5 0 0 1-6.48-6.474 6.5 6.5 0 0 1 6.48-6.474c3.57 0 6.48 2.912 6.48 6.474z"/><path id="i" d="M116.73 144.75a6.47 6.47 0 0 1-6.477 6.474c-3.565 0-6.478-2.912-6.478-6.474s2.913-6.473 6.478-6.473 6.477 2.911 6.477 6.473z"/><path id="j" d="M134.04 144.75a6.47 6.47 0 0 1-6.478 6.474c-3.564 0-6.477-2.912-6.477-6.474s2.913-6.473 6.477-6.473 6.478 2.911 6.478 6.473z"/><path id="k" d="M162.14 151.22c3.578 0 6.478-2.899 6.478-6.474s-2.9-6.473-6.478-6.473-6.477 2.898-6.477 6.473 2.9 6.474 6.477 6.474z"/><path id="l" d="m185.9 144.75c0 3.597-2.914 6.474-6.478 6.474s-6.478-2.912-6.478-6.474 2.914-6.473 6.478-6.473 6.478 2.911 6.478 6.473z"/><path id="m" d="M196.73 151.22c3.577 0 6.477-2.899 6.477-6.474s-2.9-6.473-6.477-6.473-6.478 2.898-6.478 6.473 2.9 6.474 6.478 6.474z"/><path id="n" d="m237.78 144.75c0 3.597-2.913 6.474-6.477 6.474s-6.478-2.912-6.478-6.474 2.914-6.473 6.478-6.473 6.477 2.911 6.477 6.473z"/><path id="o" d="m663.66 151.22c3.577 0 6.477-2.899 6.477-6.474s-2.9-6.473-6.477-6.473-6.478 2.898-6.478 6.473 2.901 6.474 6.478 6.474z"/><path id="p" d="m860.38 144.75c0 3.597-2.914 6.474-6.478 6.474s-6.477-2.912-6.477-6.474 2.913-6.473 6.477-6.473 6.478 2.911 6.478 6.473z"/><path id="q" d="m1009.5 151.22c3.58 0 6.48-2.899 6.48-6.474s-2.9-6.473-6.48-6.473-6.48 2.898-6.48 6.473 2.9 6.474 6.48 6.474z"/><path id="r" d="M1033.3 144.75a6.47 6.47 0 0 1-6.47 6.474c-3.57 0-6.48-2.912-6.48-6.474s2.91-6.473 6.48-6.473a6.49 6.49 0 0 1 6.47 6.473z"/><path id="s" d="m1050.6 144.75c0 3.597-2.92 6.474-6.48 6.474s-6.48-2.912-6.48-6.474 2.92-6.473 6.48-6.473 6.48 2.911 6.48 6.473z"/><path id="t" d="M1067.9 144.75c0 3.597-2.92 6.474-6.48 6.474-3.57 0-6.48-2.912-6.48-6.474s2.91-6.473 6.48-6.473a6.5 6.5 0 0 1 6.48 6.473z"/><path id="u" d="M1085.2 144.75a6.47 6.47 0 0 1-6.48 6.474 6.5 6.5 0 0 1-6.48-6.474 6.5 6.5 0 0 1 6.48-6.473c3.57 0 6.48 2.911 6.48 6.473z"/><path id="v" d="M116.73 196.6a6.47 6.47 0 0 1-6.477 6.474c-3.565 0-6.478-2.911-6.478-6.474s2.913-6.473 6.478-6.473 6.477 2.911 6.477 6.473z"/><path id="w" d="M134.04 196.6a6.47 6.47 0 0 1-6.478 6.474c-3.564 0-6.477-2.911-6.477-6.474s2.913-6.473 6.477-6.473 6.478 2.911 6.478 6.473z"/><path id="x" d="M185.9 196.6c0 3.597-2.914 6.474-6.478 6.474s-6.478-2.911-6.478-6.474 2.914-6.473 6.478-6.473 6.478 2.911 6.478 6.473z"/><path id="y" d="M237.78 196.6a6.47 6.47 0 0 1-6.477 6.474c-3.564 0-6.478-2.911-6.478-6.474s2.914-6.473 6.478-6.473 6.477 2.911 6.477 6.473z"/><path id="z" d="M376.14 196.6c0 3.597-2.914 6.474-6.478 6.474s-6.477-2.911-6.477-6.474 2.913-6.473 6.477-6.473 6.478 2.911 6.478 6.473z"/><path id="AA" d="M1016 196.6c0 3.597-2.92 6.474-6.48 6.474-3.57 0-6.48-2.911-6.48-6.474s2.91-6.473 6.48-6.473a6.5 6.5 0 0 1 6.48 6.473z"/><path id="AB" d="M1033.3 196.6a6.47 6.47 0 0 1-6.47 6.474c-3.57 0-6.48-2.911-6.48-6.474s2.91-6.473 6.48-6.473a6.49 6.49 0 0 1 6.47 6.473z"/><path id="AC" d="m1050.6 196.6c0 3.597-2.92 6.474-6.48 6.474s-6.48-2.911-6.48-6.474c0-3.562 2.92-6.473 6.48-6.473s6.48 2.911 6.48 6.473z"/><path id="AD" d="M162.14 220.34c3.578 0 6.478-2.898 6.478-6.474s-2.9-6.473-6.478-6.473-6.477 2.898-6.477 6.473 2.9 6.474 6.477 6.474z"/><path id="AE" d="M196.73 220.34c3.577 0 6.477-2.898 6.477-6.474s-2.9-6.473-6.477-6.473-6.478 2.898-6.478 6.473 2.9 6.474 6.478 6.474z"/><path id="AF" d="M663.66 220.34c3.577 0 6.477-2.898 6.477-6.474s-2.9-6.473-6.477-6.473-6.478 2.898-6.478 6.473 2.901 6.474 6.478 6.474z"/><path id="AG" d="M1009.5 220.34c3.58 0 6.48-2.898 6.48-6.474s-2.9-6.473-6.48-6.473-6.48 2.898-6.48 6.473 2.9 6.474 6.48 6.474z"/><path id="AH" d="M116.73 248.46a6.47 6.47 0 0 1-6.477 6.473c-3.565 0-6.478-2.911-6.478-6.473s2.913-6.474 6.478-6.474 6.477 2.911 6.477 6.474z"/><path id="AI" d="M134.04 248.46a6.47 6.47 0 0 1-6.478 6.473c-3.564 0-6.477-2.911-6.477-6.473s2.913-6.474 6.477-6.474 6.478 2.911 6.478 6.474z"/><path id="AJ" d="M185.9 248.46c0 3.596-2.914 6.473-6.478 6.473s-6.478-2.911-6.478-6.473 2.914-6.474 6.478-6.474 6.478 2.911 6.478 6.474z"/><path id="AK" d="M237.78 248.46a6.47 6.47 0 0 1-6.477 6.473c-3.564 0-6.478-2.911-6.478-6.473s2.914-6.474 6.478-6.474 6.477 2.911 6.477 6.474z"/><path id="AL" d="M860.38 248.46c0 3.596-2.914 6.473-6.478 6.473s-6.477-2.911-6.477-6.473 2.913-6.474 6.477-6.474 6.478 2.911 6.478 6.474z"/><path id="AM" d="M1016 248.46c0 3.596-2.92 6.473-6.48 6.473-3.57 0-6.48-2.911-6.48-6.473s2.91-6.474 6.48-6.474a6.5 6.5 0 0 1 6.48 6.474z"/><path id="AN" d="M1033.3 248.46c0 3.596-2.91 6.473-6.47 6.473-3.57 0-6.48-2.911-6.48-6.473s2.91-6.474 6.48-6.474a6.49 6.49 0 0 1 6.47 6.474z"/><path id="AO" d="m1050.6 248.46c0 3.596-2.92 6.473-6.48 6.473s-6.48-2.911-6.48-6.473c0-3.563 2.92-6.474 6.48-6.474s6.48 2.911 6.48 6.474z"/><path id="AP" d="M1085.2 248.46a6.47 6.47 0 0 1-6.48 6.473 6.5 6.5 0 0 1-6.48-6.473 6.5 6.5 0 0 1 6.48-6.474c3.57 0 6.48 2.911 6.48 6.474z"/><path id="AQ" d="M134.04 317.58a6.47 6.47 0 0 1-6.478 6.473c-3.564 0-6.477-2.911-6.477-6.473s2.913-6.474 6.477-6.474 6.478 2.912 6.478 6.474z"/><path id="AR" d="M151.31 317.58a6.47 6.47 0 0 1-6.477 6.473c-3.565 0-6.478-2.911-6.478-6.473s2.913-6.474 6.478-6.474 6.477 2.912 6.477 6.474z"/><path id="AS" d="m185.9 317.58c0 3.596-2.914 6.473-6.478 6.473s-6.478-2.911-6.478-6.473 2.914-6.474 6.478-6.474 6.478 2.912 6.478 6.474z"/><path id="AT" d="m289.67 317.58c0 3.596-2.913 6.473-6.477 6.473s-6.478-2.911-6.478-6.473 2.914-6.474 6.478-6.474 6.477 2.912 6.477 6.474z"/><path id="AU" d="m860.38 317.58c0 3.596-2.914 6.473-6.478 6.473s-6.477-2.911-6.477-6.473 2.913-6.474 6.477-6.474 6.478 2.912 6.478 6.474z"/><path id="AV" d="M1085.2 317.58a6.47 6.47 0 0 1-6.48 6.473 6.5 6.5 0 0 1-6.48-6.473 6.5 6.5 0 0 1 6.48-6.474c3.57 0 6.48 2.912 6.48 6.474z"/><path id="AW" d="m1119.8 317.58c0 3.596-2.91 6.473-6.47 6.473-3.57 0-6.48-2.911-6.48-6.473s2.91-6.474 6.48-6.474c3.56 0 6.47 2.912 6.47 6.474z"/><path id="AX" d="m1137.1 317.58c0 3.596-2.92 6.473-6.48 6.473s-6.48-2.911-6.48-6.473 2.92-6.474 6.48-6.474 6.48 2.912 6.48 6.474z"/><path id="AY" d="M162.14 341.35c3.578 0 6.478-2.898 6.478-6.473s-2.9-6.474-6.478-6.474-6.477 2.899-6.477 6.474 2.9 6.473 6.477 6.473z"/><path id="AZ" d="M283.2 341.35c3.577 0 6.477-2.898 6.477-6.473s-2.9-6.474-6.477-6.474-6.478 2.899-6.478 6.474 2.9 6.473 6.478 6.473z"/><path id="Aa" d="m663.66 341.35c3.577 0 6.477-2.898 6.477-6.473s-2.9-6.474-6.477-6.474-6.478 2.899-6.478 6.474 2.901 6.473 6.478 6.473z"/><path id="Ab" d="M1009.5 341.35c3.58 0 6.48-2.898 6.48-6.473a6.48 6.48 0 0 0-12.96 0c0 3.575 2.9 6.473 6.48 6.473z"/><path id="Ac" d="m663.66 375.91c3.577 0 6.477-2.899 6.477-6.474s-2.9-6.474-6.477-6.474-6.478 2.899-6.478 6.474 2.901 6.474 6.478 6.474z"/><path id="Ad" d="M369.67 548.75c3.578 0 6.478-2.898 6.478-6.473s-2.9-6.474-6.478-6.474-6.477 2.898-6.477 6.474 2.9 6.473 6.477 6.473z"/><path id="Ae" d="M358.84 663.25c0 3.562-2.913 6.473-6.478 6.473s-6.477-2.911-6.477-6.473 2.913-6.474 6.477-6.474 6.478 2.912 6.478 6.474z"/><path id="Af" d="M393.45 663.25c0 3.562-2.913 6.473-6.477 6.473s-6.478-2.911-6.478-6.473 2.913-6.474 6.478-6.474 6.477 2.912 6.477 6.474z"/><path id="Ag" d="M1327.3 663.25a6.5 6.5 0 0 1-6.48 6.473c-3.57 0-6.48-2.911-6.48-6.473s2.91-6.474 6.48-6.474a6.5 6.5 0 0 1 6.48 6.474z"/><path id="Ah" d="M1344.6 663.25c0 3.562-2.91 6.473-6.48 6.473a6.5 6.5 0 0 1-6.48-6.473 6.5 6.5 0 0 1 6.48-6.474c3.57 0 6.48 2.912 6.48 6.474z"/></defs></svg>